<mxfile host="app.diagrams.net" modified="2023-12-21T08:22:05.695Z" agent="Mozilla/5.0 (Windows NT 10.0; Win64; x64) AppleWebKit/537.36 (KHTML, like Gecko) Chrome/120.0.0.0 Safari/537.36" etag="U2kuafISev2sujoeYIg3" version="22.1.11" type="device">
  <diagram name="第 1 页" id="ni-e8w_nGY9TKhijs8Ec">
    <mxGraphModel dx="1143" dy="607" grid="0" gridSize="10" guides="1" tooltips="1" connect="1" arrows="1" fold="1" page="1" pageScale="1" pageWidth="827" pageHeight="1169" math="0" shadow="0">
      <root>
        <mxCell id="0" />
        <mxCell id="1" parent="0" />
        <mxCell id="-w3lJKIHvxgbYG37pDwN-1" value="&lt;font style=&quot;font-size: 18px;&quot;&gt;3.購物車時序建模&lt;/font&gt;" style="text;html=1;strokeColor=none;fillColor=none;align=center;verticalAlign=middle;whiteSpace=wrap;rounded=0;" vertex="1" parent="1">
          <mxGeometry x="40" y="37" width="179" height="30" as="geometry" />
        </mxCell>
        <mxCell id="-w3lJKIHvxgbYG37pDwN-3" value="&lt;font style=&quot;font-size: 18px;&quot;&gt;顧客&lt;/font&gt;" style="rounded=0;whiteSpace=wrap;html=1;" vertex="1" parent="1">
          <mxGeometry x="81" y="157" width="81" height="34" as="geometry" />
        </mxCell>
        <mxCell id="-w3lJKIHvxgbYG37pDwN-4" value="&lt;font style=&quot;font-size: 18px;&quot;&gt;信息查詢&lt;/font&gt;" style="rounded=0;whiteSpace=wrap;html=1;" vertex="1" parent="1">
          <mxGeometry x="256" y="157" width="94" height="34" as="geometry" />
        </mxCell>
        <mxCell id="-w3lJKIHvxgbYG37pDwN-5" value="&lt;font style=&quot;font-size: 18px;&quot;&gt;瀏覽商品信息&lt;/font&gt;" style="rounded=0;whiteSpace=wrap;html=1;" vertex="1" parent="1">
          <mxGeometry x="428" y="157" width="179" height="34" as="geometry" />
        </mxCell>
        <mxCell id="-w3lJKIHvxgbYG37pDwN-6" value="&lt;font style=&quot;font-size: 18px;&quot;&gt;購買&lt;/font&gt;" style="rounded=0;whiteSpace=wrap;html=1;" vertex="1" parent="1">
          <mxGeometry x="692" y="157" width="81" height="34" as="geometry" />
        </mxCell>
        <mxCell id="-w3lJKIHvxgbYG37pDwN-7" value="" style="shape=actor;whiteSpace=wrap;html=1;" vertex="1" parent="1">
          <mxGeometry x="101.5" y="93" width="40" height="60" as="geometry" />
        </mxCell>
        <mxCell id="-w3lJKIHvxgbYG37pDwN-8" value="" style="rounded=0;whiteSpace=wrap;html=1;rotation=90;" vertex="1" parent="1">
          <mxGeometry x="99" y="484" width="45" height="19" as="geometry" />
        </mxCell>
        <mxCell id="-w3lJKIHvxgbYG37pDwN-12" value="" style="rounded=0;whiteSpace=wrap;html=1;rotation=90;" vertex="1" parent="1">
          <mxGeometry x="280.5" y="438" width="45" height="19" as="geometry" />
        </mxCell>
        <mxCell id="-w3lJKIHvxgbYG37pDwN-13" value="" style="rounded=0;whiteSpace=wrap;html=1;rotation=90;" vertex="1" parent="1">
          <mxGeometry x="268.75" y="249.75" width="68.5" height="19" as="geometry" />
        </mxCell>
        <mxCell id="-w3lJKIHvxgbYG37pDwN-14" value="" style="rounded=0;whiteSpace=wrap;html=1;rotation=90;" vertex="1" parent="1">
          <mxGeometry x="492" y="308" width="51" height="19" as="geometry" />
        </mxCell>
        <mxCell id="-w3lJKIHvxgbYG37pDwN-15" value="" style="rounded=0;whiteSpace=wrap;html=1;rotation=90;" vertex="1" parent="1">
          <mxGeometry x="500.5" y="397" width="34" height="19" as="geometry" />
        </mxCell>
        <mxCell id="-w3lJKIHvxgbYG37pDwN-16" value="" style="rounded=0;whiteSpace=wrap;html=1;rotation=90;" vertex="1" parent="1">
          <mxGeometry x="710" y="357" width="45" height="19" as="geometry" />
        </mxCell>
        <mxCell id="-w3lJKIHvxgbYG37pDwN-18" value="" style="endArrow=none;dashed=1;html=1;rounded=0;entryX=0.5;entryY=1;entryDx=0;entryDy=0;exitX=0;exitY=0.5;exitDx=0;exitDy=0;" edge="1" parent="1" source="-w3lJKIHvxgbYG37pDwN-8" target="-w3lJKIHvxgbYG37pDwN-3">
          <mxGeometry width="50" height="50" relative="1" as="geometry">
            <mxPoint x="505" y="323" as="sourcePoint" />
            <mxPoint x="555" y="273" as="targetPoint" />
          </mxGeometry>
        </mxCell>
        <mxCell id="-w3lJKIHvxgbYG37pDwN-19" value="1.選擇商品" style="html=1;verticalAlign=bottom;endArrow=block;curved=0;rounded=0;entryX=0;entryY=1;entryDx=0;entryDy=0;" edge="1" parent="1" target="-w3lJKIHvxgbYG37pDwN-13">
          <mxGeometry x="-0.0145" y="-9" width="80" relative="1" as="geometry">
            <mxPoint x="121" y="225" as="sourcePoint" />
            <mxPoint x="271" y="228" as="targetPoint" />
            <mxPoint as="offset" />
          </mxGeometry>
        </mxCell>
        <mxCell id="-w3lJKIHvxgbYG37pDwN-20" value="2.瀏覽商品信息" style="html=1;verticalAlign=bottom;endArrow=block;curved=0;rounded=0;exitX=1;exitY=0;exitDx=0;exitDy=0;entryX=0;entryY=1;entryDx=0;entryDy=0;" edge="1" parent="1" source="-w3lJKIHvxgbYG37pDwN-13" target="-w3lJKIHvxgbYG37pDwN-14">
          <mxGeometry x="-0.0033" y="-9" width="80" relative="1" as="geometry">
            <mxPoint x="490" y="298" as="sourcePoint" />
            <mxPoint x="570" y="298" as="targetPoint" />
            <mxPoint as="offset" />
          </mxGeometry>
        </mxCell>
        <mxCell id="-w3lJKIHvxgbYG37pDwN-21" value="3.商品購買" style="html=1;verticalAlign=bottom;endArrow=block;curved=0;rounded=0;entryX=0;entryY=1;entryDx=0;entryDy=0;exitX=1;exitY=0;exitDx=0;exitDy=0;" edge="1" parent="1" source="-w3lJKIHvxgbYG37pDwN-14" target="-w3lJKIHvxgbYG37pDwN-16">
          <mxGeometry x="0.021" y="-10" width="80" relative="1" as="geometry">
            <mxPoint x="490" y="298" as="sourcePoint" />
            <mxPoint x="570" y="298" as="targetPoint" />
            <mxPoint as="offset" />
          </mxGeometry>
        </mxCell>
        <mxCell id="-w3lJKIHvxgbYG37pDwN-22" value="4.返回下單結果" style="html=1;verticalAlign=bottom;endArrow=open;dashed=1;endSize=8;curved=0;rounded=0;exitX=1;exitY=1;exitDx=0;exitDy=0;entryX=0;entryY=0;entryDx=0;entryDy=0;" edge="1" parent="1" source="-w3lJKIHvxgbYG37pDwN-16" target="-w3lJKIHvxgbYG37pDwN-15">
          <mxGeometry x="0.0003" y="10" relative="1" as="geometry">
            <mxPoint x="570" y="298" as="sourcePoint" />
            <mxPoint x="490" y="298" as="targetPoint" />
            <mxPoint as="offset" />
          </mxGeometry>
        </mxCell>
        <mxCell id="-w3lJKIHvxgbYG37pDwN-23" value="5.返回下單結果" style="html=1;verticalAlign=bottom;endArrow=open;dashed=1;endSize=8;curved=0;rounded=0;exitX=1;exitY=1;exitDx=0;exitDy=0;entryX=0;entryY=0.25;entryDx=0;entryDy=0;" edge="1" parent="1" source="-w3lJKIHvxgbYG37pDwN-15" target="-w3lJKIHvxgbYG37pDwN-12">
          <mxGeometry x="-0.0104" y="11" relative="1" as="geometry">
            <mxPoint x="570" y="298" as="sourcePoint" />
            <mxPoint x="490" y="298" as="targetPoint" />
            <mxPoint as="offset" />
          </mxGeometry>
        </mxCell>
        <mxCell id="-w3lJKIHvxgbYG37pDwN-25" value="6.返回下單結果" style="html=1;verticalAlign=bottom;endArrow=open;dashed=1;endSize=8;curved=0;rounded=0;exitX=1;exitY=1;exitDx=0;exitDy=0;entryX=0;entryY=0;entryDx=0;entryDy=0;" edge="1" parent="1" source="-w3lJKIHvxgbYG37pDwN-12" target="-w3lJKIHvxgbYG37pDwN-8">
          <mxGeometry x="0.0161" y="9" relative="1" as="geometry">
            <mxPoint x="570" y="298" as="sourcePoint" />
            <mxPoint x="490" y="298" as="targetPoint" />
            <mxPoint as="offset" />
          </mxGeometry>
        </mxCell>
        <mxCell id="-w3lJKIHvxgbYG37pDwN-27" value="" style="endArrow=none;dashed=1;html=1;rounded=0;" edge="1" parent="1" source="-w3lJKIHvxgbYG37pDwN-13">
          <mxGeometry width="50" height="50" relative="1" as="geometry">
            <mxPoint x="505" y="323" as="sourcePoint" />
            <mxPoint x="303" y="191" as="targetPoint" />
          </mxGeometry>
        </mxCell>
        <mxCell id="-w3lJKIHvxgbYG37pDwN-29" value="" style="endArrow=none;dashed=1;html=1;rounded=0;entryX=1;entryY=0.5;entryDx=0;entryDy=0;exitX=0;exitY=0.5;exitDx=0;exitDy=0;" edge="1" parent="1" source="-w3lJKIHvxgbYG37pDwN-12" target="-w3lJKIHvxgbYG37pDwN-13">
          <mxGeometry width="50" height="50" relative="1" as="geometry">
            <mxPoint x="313" y="235" as="sourcePoint" />
            <mxPoint x="313" y="201" as="targetPoint" />
          </mxGeometry>
        </mxCell>
        <mxCell id="-w3lJKIHvxgbYG37pDwN-30" value="" style="endArrow=none;dashed=1;html=1;rounded=0;entryX=1;entryY=0.5;entryDx=0;entryDy=0;" edge="1" parent="1" target="-w3lJKIHvxgbYG37pDwN-12">
          <mxGeometry width="50" height="50" relative="1" as="geometry">
            <mxPoint x="303" y="561" as="sourcePoint" />
            <mxPoint x="323" y="211" as="targetPoint" />
          </mxGeometry>
        </mxCell>
        <mxCell id="-w3lJKIHvxgbYG37pDwN-31" value="" style="endArrow=none;dashed=1;html=1;rounded=0;entryX=1;entryY=0.5;entryDx=0;entryDy=0;" edge="1" parent="1" target="-w3lJKIHvxgbYG37pDwN-8">
          <mxGeometry width="50" height="50" relative="1" as="geometry">
            <mxPoint x="122" y="562" as="sourcePoint" />
            <mxPoint x="313" y="480" as="targetPoint" />
          </mxGeometry>
        </mxCell>
        <mxCell id="-w3lJKIHvxgbYG37pDwN-32" value="" style="endArrow=none;dashed=1;html=1;rounded=0;entryX=0.5;entryY=1;entryDx=0;entryDy=0;exitX=0;exitY=0.5;exitDx=0;exitDy=0;" edge="1" parent="1" source="-w3lJKIHvxgbYG37pDwN-14" target="-w3lJKIHvxgbYG37pDwN-5">
          <mxGeometry width="50" height="50" relative="1" as="geometry">
            <mxPoint x="323" y="575" as="sourcePoint" />
            <mxPoint x="323" y="490" as="targetPoint" />
          </mxGeometry>
        </mxCell>
        <mxCell id="-w3lJKIHvxgbYG37pDwN-33" value="" style="endArrow=none;dashed=1;html=1;rounded=0;entryX=1;entryY=0.5;entryDx=0;entryDy=0;exitX=0;exitY=0.5;exitDx=0;exitDy=0;" edge="1" parent="1" source="-w3lJKIHvxgbYG37pDwN-15" target="-w3lJKIHvxgbYG37pDwN-14">
          <mxGeometry width="50" height="50" relative="1" as="geometry">
            <mxPoint x="333" y="585" as="sourcePoint" />
            <mxPoint x="333" y="500" as="targetPoint" />
          </mxGeometry>
        </mxCell>
        <mxCell id="-w3lJKIHvxgbYG37pDwN-34" value="" style="endArrow=none;dashed=1;html=1;rounded=0;entryX=1;entryY=0.5;entryDx=0;entryDy=0;" edge="1" parent="1" target="-w3lJKIHvxgbYG37pDwN-15">
          <mxGeometry width="50" height="50" relative="1" as="geometry">
            <mxPoint x="518" y="551" as="sourcePoint" />
            <mxPoint x="343" y="510" as="targetPoint" />
          </mxGeometry>
        </mxCell>
        <mxCell id="-w3lJKIHvxgbYG37pDwN-35" value="" style="endArrow=none;dashed=1;html=1;rounded=0;entryX=0.5;entryY=1;entryDx=0;entryDy=0;exitX=0;exitY=0.5;exitDx=0;exitDy=0;" edge="1" parent="1" source="-w3lJKIHvxgbYG37pDwN-16" target="-w3lJKIHvxgbYG37pDwN-6">
          <mxGeometry width="50" height="50" relative="1" as="geometry">
            <mxPoint x="353" y="605" as="sourcePoint" />
            <mxPoint x="353" y="520" as="targetPoint" />
          </mxGeometry>
        </mxCell>
        <mxCell id="-w3lJKIHvxgbYG37pDwN-36" value="" style="endArrow=none;dashed=1;html=1;rounded=0;entryX=1;entryY=0.5;entryDx=0;entryDy=0;" edge="1" parent="1" target="-w3lJKIHvxgbYG37pDwN-16">
          <mxGeometry width="50" height="50" relative="1" as="geometry">
            <mxPoint x="733" y="548" as="sourcePoint" />
            <mxPoint x="363" y="530" as="targetPoint" />
          </mxGeometry>
        </mxCell>
      </root>
    </mxGraphModel>
  </diagram>
</mxfile>
